:FULLY-SPECIFIED
:FORCE-ALL-JOINTS-BE-3DOF
:DEGREES
1733
root -4.64937 15.7112 27.5812 -171.681 -0.479631 -170.375
lfemur -50.7267 25.1903 -23.3582
ltibia 63.7327 -0 0
lfoot -16.3029 33.1272 -0.311563
ltoes 0.0734884 -0 0
rfemur -21.2534 -18.7678 17.561
rtibia 72.0796 -0 0
rfoot -9.41102 -26.5557 -0.218322
rtoes 12.7779 -0 0
lowerback 15.0078 2.03227 -4.12446
upperback -1.25263 2.20648 3.33706
thorax -9.99943 1.36824 5.51729
lowerneck 4.28033 -14.6386 -15.5771
upperneck -2.75284 -20.8922 22.2401
head 2.75981 -10.7946 8.39662
lclavicle 6.02815e-14 3.18055e-14 0
lhumerus -48.0801 -47.5132 121.825
lradius 95.3247 -0 0
lwrist 37.7219 0 0
lhand -4.7436 41.2629 0.198661
lfingers 7.12502 -0 0
lthumb 21.0356 70.0991 0.180436
rclavicle 6.02815e-14 3.18055e-14 0
rhumerus 53.4855 32.6646 -21.7139
rradius 111.816 -0 0
rwrist -13.5338 0 0
rhand 5.80075 -26.6478 0.207989
rfingers 7.12502 -0 0
rthumb 31.0926 -53.5863 0.324483
1734
root -4.60033 15.7234 27.6354 -171.435 2.62731 -170.172
lfemur -50.4142 25.1152 -22.7357
ltibia 64.1589 -0 0
lfoot -15.9791 32.6082 -0.339516
ltoes -0.371071 0 0
rfemur -21.3169 -19.5835 17.9601
rtibia 71.9211 -0 0
rfoot -9.65753 -26.6399 -0.236946
rtoes 12.3665 -0 0
lowerback 14.9865 2.17076 -3.98703
upperback -1.26562 2.41116 3.25712
thorax -10.0059 1.45783 5.3044
lowerneck 4.01595 -14.4181 -15.3931
upperneck -2.51122 -20.5648 21.9876
head 2.77816 -10.6056 8.31242
lclavicle 6.02815e-14 3.18055e-14 0
lhumerus -48.8852 -46.6561 121.75
lradius 95.5834 -0 0
lwrist 37.0306 0 0
lhand -4.97577 40.9213 0.220748
lfingers 7.12502 -0 0
lthumb 20.8121 69.777 0.200355
rclavicle 6.02815e-14 3.18055e-14 0
rhumerus 52.2722 32.1078 -22.6981
rradius 109.88 -0 0
rwrist -12.6686 0 0
rhand 5.11762 -26.7199 0.234663
rfingers 7.12502 -0 0
rthumb 30.4376 -53.7418 0.362799
1735
root -4.56106 15.7348 27.6823 -171.179 5.77438 -169.958
lfemur -50.0576 25.0046 -22.0766
ltibia 64.5971 -0 0
lfoot -15.6497 32.0704 -0.365299
ltoes -0.864623 0 0
rfemur -21.4046 -20.4071 18.3647
rtibia 71.7265 -0 0
rfoot -9.90418 -26.7105 -0.254601
rtoes 11.9171 -0 0
lowerback 14.9651 2.31319 -3.8481
upperback -1.27754 2.62109 3.17389
thorax -10.0108 1.54965 5.08582
lowerneck 3.74513 -14.1892 -15.2033
upperneck -2.26389 -20.2249 21.725
head 2.79581 -10.4098 8.22445
lclavicle 6.02815e-14 3.18055e-14 0
lhumerus -49.7016 -45.7634 121.634
lradius 95.8548 -0 0
lwrist 36.3189 0 0
lhand -5.22058 40.5656 0.242078
lfingers 7.12502 -0 0
lthumb 20.5765 69.4419 0.21957
rclavicle 6.02815e-14 3.18055e-14 0
rhumerus 51.0241 31.4986 -23.707
rradius 107.847 -0 0
rwrist -11.7893 0 0
rhand 4.40954 -26.8032 0.261114
rfingers 7.12502 -0 0
rthumb 29.7587 -53.9119 0.400267
1736
root -4.53044 15.7452 27.7223 -170.91 8.95259 -169.732
lfemur -49.6599 24.8586 -21.3842
ltibia 65.046 -0 0
lfoot -15.3154 31.5156 -0.388601
ltoes -1.4048 0 0
rfemur -21.5164 -21.2359 18.7746
rtibia 71.4973 -0 0
rfoot -10.1503 -26.7675 -0.271186
rtoes 11.4317 -0 0
lowerback 14.9436 2.4591 -3.70804
upperback -1.28841 2.83562 3.08766
thorax -10.0142 1.64343 4.86221
lowerneck 3.46881 -13.9526 -15.0084
upperneck -2.01185 -19.8734 21.4532
head 2.81269 -10.208 8.13305
lclavicle 6.02815e-14 3.18055e-14 0
lhumerus -50.5275 -44.8388 121.477
lradius 96.1378 -0 0
lwrist 35.5892 0 0
lhand -5.47714 40.1969 0.262381
lfingers 7.12502 -0 0
lthumb 20.3296 69.0949 0.23784
rclavicle 6.02815e-14 3.18055e-14 0
rhumerus 49.7483 30.8377 -24.7339
rradius 105.723 -0 0
rwrist -10.8983 0 0
rhand 3.67885 -26.8973 0.287006
rfingers 7.12502 -0 0
rthumb 29.0581 -54.096 0.436418
1737
root -4.50736 15.7546 27.7559 -170.628 12.1529 -169.492
lfemur -49.2241 24.6772 -20.6619
ltibia 65.5042 -0 0
lfoot -14.9774 30.9457 -0.409148
ltoes -1.98924 0 0
rfemur -21.652 -22.0674 19.1891
rtibia 71.2347 -0 0
rfoot -10.3954 -26.8111 -0.286596
rtoes 10.9123 -0 0
lowerback 14.9221 2.60804 -3.56724
upperback -1.29826 3.05411 2.99872
thorax -10.0162 1.7389 4.63427
lowerneck 3.18792 -13.709 -14.8093
upperneck -1.75611 -19.5115 21.1734
head 2.82873 -10.0008 8.03853
lclavicle 6.02815e-14 3.18055e-14 0
lhumerus -51.3611 -43.886 121.28
lradius 96.4316 -0 0
lwrist 34.8436 0 0
lhand -5.74454 39.8164 0.281404
lfingers 7.12502 -0 0
lthumb 20.0723 68.7371 0.254937
rclavicle 6.02815e-14 3.18055e-14 0
rhumerus 48.4522 30.126 -25.772
rradius 103.517 -0 0
rwrist -9.99827 0 0
rhand 2.92792 -27.0018 0.31201
rfingers 7.12502 -0 0
rthumb 28.338 -54.2932 0.470797
1738
root -4.49072 15.763 27.7836 -170.331 15.3665 -169.237
lfemur -48.7532 24.4606 -19.9132
ltibia 65.9703 -0 0
lfoot -14.6366 30.3624 -0.426702
ltoes -2.61558 0 0
rfemur -21.8111 -22.8992 19.608
rtibia 70.9401 -0 0
rfoot -10.6387 -26.8414 -0.300731
rtoes 10.3608 -0 0
lowerback 14.9008 2.75957 -3.42611
upperback -1.30712 3.2759 2.90735
thorax -10.0168 1.83578 4.40269
lowerneck 2.9034 -13.4592 -14.6066
upperneck -1.49763 -19.1401 20.8867
head 2.84387 -9.78885 7.94119
lclavicle 6.02815e-14 3.18055e-14 0
lhumerus -52.2009 -42.9087 121.043
lradius 96.7351 -0 0
lwrist 34.0845 0 0
lhand -6.02186 39.4255 0.298908
lfingers 7.12502 -0 0
lthumb 19.8054 68.3697 0.270647
rclavicle 6.02815e-14 3.18055e-14 0
rhumerus 47.1423 29.3647 -26.8154
rradius 101.234 -0 0
rwrist -9.09171 0 0
rhand 2.1591 -27.116 0.335806
rfingers 7.12502 -0 0
rthumb 27.6007 -54.5028 0.502971
1739
root -4.47942 15.7704 27.8056 -170.018 18.5841 -168.966
lfemur -48.2501 24.2089 -19.1416
ltibia 66.443 -0 0
lfoot -14.2939 29.7676 -0.441064
ltoes -3.28145 0 0
rfemur -21.9932 -23.7289 20.0307
rtibia 70.6147 -0 0
rfoot -10.8796 -26.8586 -0.31349
rtoes 9.77942 -0 0
lowerback 14.8796 2.91324 -3.28501
upperback -1.315 3.50035 2.81384
thorax -10.0161 1.93379 4.16815
lowerneck 2.61615 -13.2037 -14.401
upperneck -1.23734 -18.7603 20.5941
head 2.85805 -9.57276 7.84134
lclavicle 6.02815e-14 3.18055e-14 0
lhumerus -53.0453 -41.9106 120.768
lradius 97.0473 -0 0
lwrist 33.314 0 0
lhand -6.30821 39.0252 0.314673
lfingers 7.12502 -0 0
lthumb 19.5299 67.9938 0.284775
rclavicle 6.02815e-14 3.18055e-14 0
rhumerus 45.825 28.5553 -27.858
rradius 98.8839 -0 0
rwrist -8.18119 0 0
rhand 1.37475 -27.2397 0.358084
rfingers 7.12502 -0 0
rthumb 26.8485 -54.7241 0.532532
1740
root -4.47234 15.7767 27.8226 -169.687 21.7969 -168.677
lfemur -47.718 23.9223 -18.3506
ltibia 66.9208 -0 0
lfoot -13.9504 29.163 -0.452075
ltoes -3.98449 0 0
rfemur -22.198 -24.5539 20.4566
rtibia 70.2599 -0 0
rfoot -11.1176 -26.8628 -0.324775
rtoes 9.17 -0 0
lowerback 14.8587 3.06859 -3.14433
upperback -1.32191 3.7268 2.71849
thorax -10.0141 2.03266 3.93132
lowerneck 2.32706 -12.9435 -14.1932
upperneck -0.976161 -18.3732 20.2967
head 2.87123 -9.35321 7.7393
lclavicle 6.02815e-14 3.18055e-14 0
lhumerus -53.8932 -40.8953 120.456
lradius 97.3673 -0 0
lwrist 32.5345 0 0
lhand -6.60266 38.6168 0.328499
lfingers 7.12502 -0 0
lthumb 19.2466 67.6106 0.297141
rclavicle 6.02815e-14 3.18055e-14 0
rhumerus 44.5063 27.6998 -28.8947
rradius 96.4726 -0 0
rwrist -7.26925 0 0
rhand 0.577215 -27.3722 0.378551
rfingers 7.12502 -0 0
rthumb 26.0835 -54.9562 0.559098
